<svg version="1.1" id="Layer_1" xmlns="http://www.w3.org/2000/svg" xmlns:xlink="http://www.w3.org/1999/xlink" x="0px" y="0px"
	 width="100%" viewBox="0 0 512 512" enable-background="new 0 0 512 512" xml:space="preserve">
<path fill="#000000" opacity="1.000000" stroke="none" 
	d="
M513.000000,74.000000 
	C513.000000,85.354225 513.000000,96.708458 512.600708,108.685570 
	C511.797028,114.048508 511.895966,118.897369 510.898773,123.509224 
	C507.165680,140.774612 503.822510,158.068604 497.261780,174.696854 
	C486.962921,200.799545 472.484833,223.775635 450.239441,241.037689 
	C429.794830,256.902344 406.004303,264.576996 380.236969,265.937744 
	C372.591705,266.341461 364.906158,265.939453 357.241364,266.057007 
	C355.892700,266.077698 353.935242,266.417114 353.306580,267.330444 
	C344.643768,279.916077 333.831024,290.458588 322.225128,300.219391 
	C313.285767,307.737579 303.326935,313.714691 292.419220,317.912018 
	C289.189301,319.154846 287.880005,320.605438 287.910248,324.224762 
	C288.091370,345.889709 287.994843,367.556946 288.013336,389.223419 
	C288.014404,390.474335 288.207825,391.725067 288.327423,393.164703 
	C313.024658,393.164703 337.312134,393.164703 361.998230,393.164703 
	C361.998230,408.459991 361.998230,423.536377 361.998230,439.006836 
	C370.133301,439.006836 377.880798,439.006836 385.791687,439.006836 
	C385.791687,448.146790 385.791687,456.885162 385.791687,465.788116 
	C299.845459,465.788116 214.107559,465.788116 128.216187,465.788116 
	C128.216187,456.836945 128.216187,448.098511 128.216187,438.960022 
	C136.167633,438.960022 143.915039,438.960022 152.048584,438.960022 
	C152.048584,423.488556 152.048584,408.413147 152.048584,392.942993 
	C176.853745,392.942993 201.261520,392.942993 226.000000,392.942993 
	C226.000000,371.581818 225.748459,350.615051 226.145996,329.660583 
	C226.273117,322.960968 225.127029,319.172333 218.054901,316.214111 
	C194.345047,306.296356 177.017090,288.271301 161.140839,268.682617 
	C160.049652,267.336243 157.880798,266.143829 156.191605,266.114380 
	C141.394211,265.856506 126.629959,266.345581 111.961670,263.093475 
	C80.514809,256.121307 55.668858,239.205429 37.169823,213.296204 
	C18.796980,187.563721 8.999041,158.245712 3.947055,127.211555 
	C3.329031,123.415062 1.999694,119.734360 1.000000,116.000000 
	C1.000000,115.555557 1.000000,115.111107 1.339799,114.249344 
	C1.453065,112.888008 1.226533,111.944008 1.000000,111.000000 
	C1.000000,98.979103 1.000000,86.958214 1.468657,74.468658 
	C35.205769,74.000000 68.474220,74.000000 102.140945,74.000000 
	C102.140945,65.394470 102.140945,57.317398 102.140945,48.780354 
	C205.617203,48.780354 308.692322,48.780354 412.168335,48.780354 
	C412.168335,57.633598 412.168335,65.713379 412.168335,74.000000 
	C446.045959,74.000000 479.522980,74.000000 513.000000,74.000000 
M42.002319,140.412476 
	C45.848106,155.382614 51.388432,169.717102 59.065189,183.114151 
	C70.545227,203.148468 86.207123,218.728622 108.690933,225.866257 
	C118.098152,228.852646 127.990715,230.310150 137.662613,232.462769 
	C116.986755,193.314117 108.438156,151.746307 104.143661,109.270988 
	C81.056976,109.270988 58.725700,109.270988 35.819294,109.270988 
	C37.930000,119.617981 39.963638,129.587173 42.002319,140.412476 
M477.306549,110.138557 
	C477.413055,109.864182 477.519592,109.589798 477.626099,109.315422 
	C477.312134,109.216362 476.998260,109.030777 476.684235,109.030586 
	C454.567047,109.017021 432.449860,109.018242 411.136169,109.018242 
	C407.037872,130.387360 403.444397,151.388947 398.900024,172.182693 
	C394.347534,193.013580 385.954865,212.531158 375.299255,232.186508 
	C384.033630,230.659149 391.760376,229.801590 399.222900,227.904587 
	C417.063263,223.369476 431.938507,213.648010 443.644012,199.602280 
	C453.047607,188.318695 459.865906,175.360931 465.061554,161.574615 
	C471.227295,145.214218 475.785858,128.492828 477.306549,110.138557 
z"/>
</svg>
